<?xml version="1.0" encoding="utf-8"?>
<!-- Generator: Adobe Illustrator 23.0.3, SVG Export Plug-In . SVG Version: 6.00 Build 0)  -->
<svg version="1.1" id="Livello_1" xmlns="http://www.w3.org/2000/svg" xmlns:xlink="http://www.w3.org/1999/xlink" x="0px" y="0px"
	 viewBox="0 0 300 55" style="enable-background:new 0 0 300 55;" xml:space="preserve">
<style type="text/css">
	.st0{fill:#FFFFFF;}
	.st1{fill:#E20613;}
</style>
<g>
	<circle class="st0" cx="26.2" cy="27.74" r="22.98"/>
	<path class="st1" d="M26.23,0.74c15,0,26.23,12.3,26.23,26.57c0,14.55-11.23,26.79-26.23,26.79C11.23,54.1,0,41.83,0,27.42
		C0,13.01,11.23,0.74,26.23,0.74z M13.73,27.74H26.2v-4.39l10.24-5.18l-7.73-2.27l10-5.06H13.73V27.74z M42.07,28.96H10.37
		l7.93,16.38l7.93-11.03l7.93,11.03L42.07,28.96z"/>
	<path class="st0" d="M67.26,0.83h33.01l-2.28,11.42H78.6l-1.97,10.16h18.36l-2.21,11.27H74.51l-3.86,20.25h-13.4L67.26,0.83z"/>
	<path class="st0" d="M133.59,32.5h-18.67l-1.89,10.01h20.96l-2.13,11.42H97.43l10.01-53.1h33.33l-2.2,11.42h-19.78l-1.74,8.9h18.75
		L133.59,32.5z"/>
	<path class="st0" d="M148.24,1.93c3.62-0.94,9.46-1.5,15.28-1.5c4.96,0,10.48,0.55,14.58,2.76c3.78,2.05,6.7,5.52,6.7,11.03
		c0,7.96-4.96,12.45-11.74,14.89l-0.08,0.24c2.91,1.5,4.17,4.81,4.73,9.3c0.71,5.35,1.1,13.08,2.13,15.28h-13.79
		c-0.47-1.58-1.02-5.67-1.58-12.45c-0.55-5.99-2.52-7.57-6.7-7.57h-2.44l-3.78,20.01h-13.31L148.24,1.93z M157.3,23.99h4.17
		c5.2,0,9.37-2.99,9.37-7.72c0-3.63-3.31-5.28-7.25-5.28c-1.89,0-3.07,0.16-3.94,0.31L157.3,23.99z"/>
	<path class="st0" d="M184.71,53.93l10.01-53.1h15.99l4.81,15.99c2.05,7.09,3.55,13.16,4.89,19.62h0.23
		c0.24-5.75,1.03-12.21,2.53-20.09l2.91-15.52h12.53l-10.08,53.1h-14.02l-5.36-17.33c-2.2-7.49-3.78-12.77-5.28-19.94h-0.31
		c-0.55,5.28-1.97,13.79-3.62,22.62l-2.76,14.65H184.71z"/>
	<path class="st0" d="M289.64,22.26c0,9.85-3.39,18.99-9.46,24.82c-5.04,4.89-11.97,7.72-20.17,7.72
		c-13.79,0-22.22-9.53-22.22-22.38c0-9.69,3.55-18.91,9.69-24.74c5.12-4.88,12.05-7.72,20.09-7.72
		C281.45-0.04,289.64,9.03,289.64,22.26z M258.21,14.54c-3.86,3.86-6.07,11.58-6.07,17.57c0,6.93,3.23,11.51,9.85,11.51
		c2.76,0,5.36-1.26,7.41-3.23c3.78-3.86,5.91-12.13,5.91-17.73c0-6.3-2.36-11.51-9.29-11.51C262.94,11.15,260.34,12.41,258.21,14.54
		z"/>
	<path class="st0" d="M299.4,4.75c0,2.07-1.66,3.71-3.78,3.71c-2.11,0-3.8-1.64-3.8-3.71c0-2.07,1.69-3.69,3.83-3.69
		C297.74,1.06,299.4,2.68,299.4,4.75z M292.77,4.75c0,1.64,1.24,2.95,2.88,2.95c1.6,0.02,2.81-1.31,2.81-2.92
		c0-1.64-1.22-2.97-2.86-2.97C294,1.8,292.77,3.13,292.77,4.75z M295.04,6.66h-0.85V2.97c0.34-0.04,0.81-0.11,1.42-0.11
		c0.69,0,1.01,0.11,1.26,0.29c0.22,0.16,0.38,0.43,0.38,0.79c0,0.45-0.34,0.74-0.77,0.88v0.04c0.36,0.11,0.54,0.4,0.65,0.9
		c0.11,0.56,0.2,0.76,0.27,0.9h-0.9c-0.11-0.14-0.18-0.45-0.29-0.9c-0.07-0.38-0.29-0.56-0.76-0.56h-0.41V6.66z M295.06,4.59h0.41
		c0.47,0,0.85-0.16,0.85-0.54c0-0.34-0.25-0.56-0.79-0.56c-0.22,0-0.38,0.02-0.47,0.05V4.59z"/>
</g>
</svg>
